<mxfile host="app.diagrams.net" modified="2024-03-04T16:41:02.039Z" agent="Mozilla/5.0 (Windows NT 10.0; Win64; x64) AppleWebKit/537.36 (KHTML, like Gecko) Chrome/122.0.0.0 Safari/537.36" version="24.0.1" etag="kaocL6pB_PyXxtUQFlWq" type="github">
  <diagram name="Page-1" id="Y_8pFw4YGAeSzMD5tvz7">
    <mxGraphModel>
      <root>
        <mxCell id="0" />
        <mxCell id="1" parent="0" />
      </root>
    </mxGraphModel>
  </diagram>
</mxfile>
